<?xml version="1.0" encoding="utf-8"?>
<!-- Generator: Adobe Illustrator 23.0.0, SVG Export Plug-In . SVG Version: 6.00 Build 0)  -->
<svg version="1.1" id="Layer_1" xmlns="http://www.w3.org/2000/svg" xmlns:xlink="http://www.w3.org/1999/xlink" x="0px" y="0px"
	 width="30px" height="30px" viewBox="0 0 30 30" style="enable-background:new 0 0 30 30;" xml:space="preserve">
<g id="branding">
	<path class="st0" d="M15,23.548c-2.084-1.048-3.588-2.58-4.672-4.236l11.904-6.992C21.728,15.508,20.12,20.968,15,23.548 M15,6.724
		c0.752,0.896,2.516,2.616,5.392,3.324l-11.404,6.7c-1.124-2.732-1.38-5.344-1.436-6.396C11.664,10.14,14.08,7.82,15,6.724
		 M22.976,9.352c-5.076-0.036-7.452-3.588-7.552-3.736C15.332,5.472,15.172,5.384,15,5.384s-0.332,0.088-0.424,0.232
		c-0.024,0.036-2.452,3.7-7.552,3.736c-0.276,0.004-0.5,0.224-0.504,0.504c0,0.108-0.008,2.716,0.992,5.84
		c1.336,4.168,3.848,7.236,7.268,8.872c0.068,0.032,0.144,0.048,0.22,0.048s0.148-0.016,0.22-0.048
		c3.42-1.636,5.936-4.704,7.268-8.872c1-3.124,0.992-5.732,0.992-5.84C23.476,9.576,23.252,9.356,22.976,9.352"/>
	<path class="st0" d="M15,0C6.7,0,0,6.7,0,15s6.7,15,15,15s15-6.7,15-15S23.3,0,15,0 M15,2.2c7.1,0,12.9,5.8,12.9,12.9
		S22.1,27.8,15,27.8S2.2,22.1,2.2,15S7.9,2.2,15,2.2"/>
</g>
</svg>
