<?xml version="1.0" encoding="utf-8"?>
<!-- Generator: Adobe Illustrator 23.0.0, SVG Export Plug-In . SVG Version: 6.00 Build 0)  -->
<svg version="1.1" id="Layer_1" xmlns="http://www.w3.org/2000/svg" xmlns:xlink="http://www.w3.org/1999/xlink" x="0px" y="0px"
	 width="30px" height="30px" viewBox="0 0 30 30" style="enable-background:new 0 0 30 30;" xml:space="preserve">
<g id="annual_reports">
	<path class="st0" d="M7.801,9.116h5.884c0.544,0,0.979,0.435,0.979,0.979v6.256c0,0.172,0.154,0.326,0.326,0.326
		c0.172,0,0.326-0.154,0.326-0.326v-6.256c0-0.544,0.435-0.979,0.979-0.979h5.884v10.463h-5.88c-0.521,0-1.002,0.263-1.31,0.653
		c-0.304-0.394-0.762-0.653-1.306-0.653H7.801V9.116z M22.843,9.769V8.789c0-0.172-0.154-0.326-0.326-0.326h-6.211
		c-0.521,0-1.002,0.263-1.31,0.653c-0.304-0.394-0.762-0.653-1.306-0.653H7.479c-0.172,0-0.326,0.154-0.326,0.326v0.979H6.5v11.116
		h7.04c0.349,0.394,0.87,0.653,1.46,0.653s1.111-0.263,1.46-0.653h7.04V9.769H22.843z"/>
	<path class="st0" d="M15.002-0.002c-8.3,0-15,6.7-15,15s6.7,15,15,15s15-6.7,15-15S23.302-0.002,15.002-0.002 M15.002,2.198
		c7.1,0,12.9,5.8,12.9,12.9s-5.8,12.7-12.9,12.7s-12.8-5.7-12.8-12.8S7.902,2.198,15.002,2.198"/>
</g>
</svg>
