<?xml version="1.0" encoding="utf-8"?>
<!-- Generator: Adobe Illustrator 24.1.0, SVG Export Plug-In . SVG Version: 6.00 Build 0)  -->
<svg version="1.1" id="Layer_1" xmlns="http://www.w3.org/2000/svg" xmlns:xlink="http://www.w3.org/1999/xlink" x="0px" y="0px"
	 width="77.7px" height="77.7px" viewBox="0 0 77.7 77.7" style="enable-background:new 0 0 77.7 77.7;" xml:space="preserve">
<path class="st0" d="M38.8,77.8c21.5,0,38.8-17.4,38.8-38.9S60.3,0,38.8,0S0,17.4,0,38.9S17.4,77.8,38.8,77.8 M38.8,72.3
	c-18.4,0-33.4-15-33.4-33.4s15-33.4,33.4-33.4s33.4,15,33.4,33.4S57.3,72.3,38.8,72.3"/>
<path class="st0" d="M44,35.1l-9,9c-3.4,3.4-3.4,8.9,0,12.3l4.8,4.8L45,56c1.8-1.8,2.6-4.2,2.5-6.5c-1.9-0.5-3.8-1.4-5.3-3L38.6,43
	c1-1,2.6-1,3.7,0l1.7,1.7c3.4,3.4,8.9,3.4,12.3,0l4.8-4.8l-4.8-4.8C52.9,31.7,47.4,31.7,44,35.1 M42.8,33.9c3.4-3.4,3.4-8.9,0-12.3
	L38,16.9l-4.8,4.8c-3.4,3.4-3.4,8.9,0,12.3l1.7,1.7c1,1,1,2.6,0,3.7l-3.5-3.5c-1.5-1.5-2.5-3.4-3-5.3c-2.3-0.1-4.8,0.7-6.5,2.5
	l-5.2,5.2l4.8,4.8c3.4,3.4,8.9,3.4,12.3,0L42.8,33.9z"/>
</svg>
